<svg id="Capa_1" data-name="Capa 1" xmlns="http://www.w3.org/2000/svg" viewBox="0 0 188.97 31.17"><path d="M442.36,859.47H438a2.06,2.06,0,0,1-2.08-2.09v-4.16a2.06,2.06,0,0,1,2.08-2.09h4.17a2.07,2.07,0,0,1,2.08,2.09v2.5" transform="translate(-328.79 -842.75)" style="fill:none;stroke:#000;stroke-linecap:round;stroke-linejoin:round;stroke-width:0.8331579298039201px"/><path d="M441.74,855.05a1.66,1.66,0,0,1-3.29.46,1.68,1.68,0,0,1,1.41-1.88,1.06,1.06,0,0,1,.5,0A1.7,1.7,0,0,1,441.74,855.05Z" transform="translate(-328.79 -842.75)" style="fill:none;stroke:#000;stroke-linecap:round;stroke-linejoin:round;stroke-width:0.8331579298039201px"/><path d="M444.24,855.68a1.26,1.26,0,0,1-2.5.2v-.37" transform="translate(-328.79 -842.75)" style="fill:none;stroke:#000;stroke-linecap:round;stroke-linejoin:round;stroke-width:0.8434891140361875px"/><line x1="113.57" y1="10.26" x2="113.57" y2="10.26" style="fill:none;stroke:#000;stroke-linecap:round;stroke-linejoin:round;stroke-width:0.8331579298039201px"/><text transform="translate(118.1 14.6)" style="font-size:7.5245490074157715px;fill:#1d1d1b;font-family:CenturyGothic-Bold, Century Gothic;font-weight:700">durante.yo</text><text transform="translate(0.25 21.33)" style="font-size:25.780181884765625px;fill:#1d1d1b;font-family:BogamRegular, Bogam;letter-spacing:0.0029925482234704325em">du<tspan x="25.96" y="0" style="letter-spacing:-0.0019887187561037686em">r</tspan><tspan x="36.69" y="0" style="letter-spacing:0.0030114884020999923em">ante</tspan></text><path d="M435.73,864.44h.92l.76,2.14.81-2.14h.57l.8,2.12.76-2.12h.93l-1.37,3.76h-.6l-.81-2.14-.82,2.14h-.6Z" transform="translate(-328.79 -842.75)" style="fill:#1d1d1b"/><path d="M441.4,864.44h.92l.76,2.14.81-2.14h.57l.8,2.12.76-2.12H447l-1.37,3.76H445l-.81-2.14-.82,2.14h-.6Z" transform="translate(-328.79 -842.75)" style="fill:#1d1d1b"/><path d="M447.07,864.44H448l.76,2.14.81-2.14h.57l.8,2.12.76-2.12h.93l-1.37,3.76h-.6l-.81-2.14L449,868.2h-.6Z" transform="translate(-328.79 -842.75)" style="fill:#1d1d1b"/><path d="M453.34,867.22a.51.51,0,0,1,.54.54.52.52,0,0,1-.15.38.53.53,0,0,1-.39.16.55.55,0,0,1-.54-.54.53.53,0,0,1,.16-.39A.52.52,0,0,1,453.34,867.22Z" transform="translate(-328.79 -842.75)" style="fill:#1d1d1b"/><path d="M455.24,864.44h.95v3.89a2.28,2.28,0,0,1-.11.8.84.84,0,0,1-.33.41,1.07,1.07,0,0,1-.55.14,2.51,2.51,0,0,1-.71-.14v-.75a1,1,0,0,0,.39.11.34.34,0,0,0,.27-.11.62.62,0,0,0,.09-.39Z" transform="translate(-328.79 -842.75)" style="fill:#1d1d1b"/><path d="M459.76,864.44h.95v3.76h-.95v-.39a1.77,1.77,0,0,1-.55.37,1.54,1.54,0,0,1-.61.12,1.67,1.67,0,0,1-1.26-.57,1.92,1.92,0,0,1-.53-1.4,2,2,0,0,1,.51-1.43,1.66,1.66,0,0,1,1.25-.56,1.53,1.53,0,0,1,.64.13,1.65,1.65,0,0,1,.55.38Zm-1,.77a1,1,0,0,0-.73.31,1.14,1.14,0,0,0-.29.8,1.16,1.16,0,0,0,.29.8,1,1,0,0,0,.73.32,1,1,0,0,0,.74-.31,1.17,1.17,0,0,0,.29-.82,1.11,1.11,0,0,0-.29-.79A1,1,0,0,0,458.77,865.21Z" transform="translate(-328.79 -842.75)" style="fill:#1d1d1b"/><path d="M461.26,864.44h1l.95,2.22.95-2.22h1l-1.6,3.76h-.62Z" transform="translate(-328.79 -842.75)" style="fill:#1d1d1b"/><path d="M465.53,864.44h.94v3.76h-.94Z" transform="translate(-328.79 -842.75)" style="fill:#1d1d1b"/><path d="M471.1,866.59h-3a1,1,0,0,0,.35.64,1.09,1.09,0,0,0,.73.24,1.26,1.26,0,0,0,.91-.37l.79.37a1.86,1.86,0,0,1-.71.63,2.28,2.28,0,0,1-1,.2,2,2,0,0,1-1.45-.56,1.91,1.91,0,0,1-.56-1.4,2,2,0,0,1,.56-1.43,1.85,1.85,0,0,1,1.39-.57,1.93,1.93,0,0,1,1.45.57,2.06,2.06,0,0,1,.56,1.5Zm-.94-.74a1,1,0,0,0-.37-.51,1.08,1.08,0,0,0-.64-.2,1.12,1.12,0,0,0-.69.22,1.24,1.24,0,0,0-.35.49Z" transform="translate(-328.79 -842.75)" style="fill:#1d1d1b"/><path d="M471.65,864.44h.81v.47a.92.92,0,0,1,.35-.42.8.8,0,0,1,.47-.15.81.81,0,0,1,.39.1l-.3.81a.72.72,0,0,0-.27-.08.44.44,0,0,0-.37.27,2.47,2.47,0,0,0-.15,1.06v1.7h-.94Z" transform="translate(-328.79 -842.75)" style="fill:#1d1d1b"/><path d="M476.92,863h.94v5.22h-.94v-.39a1.81,1.81,0,0,1-.56.37,1.5,1.5,0,0,1-.6.12,1.65,1.65,0,0,1-1.26-.57,1.93,1.93,0,0,1-.54-1.4,2,2,0,0,1,.52-1.43,1.64,1.64,0,0,1,1.25-.56,1.53,1.53,0,0,1,.64.13,1.76,1.76,0,0,1,.55.38Zm-1,2.23a1,1,0,0,0-.73.31,1.14,1.14,0,0,0-.29.8,1.12,1.12,0,0,0,.3.8,1,1,0,0,0,.73.32,1,1,0,0,0,.73-.31,1.13,1.13,0,0,0,.3-.82,1.08,1.08,0,0,0-.3-.79A1,1,0,0,0,475.92,865.21Z" transform="translate(-328.79 -842.75)" style="fill:#1d1d1b"/><path d="M478.81,864.44h1v1.81a2.55,2.55,0,0,0,.07.74.7.7,0,0,0,.24.32.69.69,0,0,0,.39.11.72.72,0,0,0,.4-.11.7.7,0,0,0,.25-.33,2.52,2.52,0,0,0,.06-.7v-1.84h.94V866a4,4,0,0,1-.15,1.35,1.47,1.47,0,0,1-.56.68,1.72,1.72,0,0,1-1,.24,1.64,1.64,0,0,1-1-.28,1.5,1.5,0,0,1-.54-.77,4.82,4.82,0,0,1-.11-1.24Z" transform="translate(-328.79 -842.75)" style="fill:#1d1d1b"/><path d="M482.85,864.44h.81v.47a.92.92,0,0,1,.35-.42.81.81,0,0,1,.86,0l-.29.81a.76.76,0,0,0-.28-.08c-.14,0-.26.09-.37.27a2.47,2.47,0,0,0-.15,1.06v1.7h-.94Z" transform="translate(-328.79 -842.75)" style="fill:#1d1d1b"/><path d="M488.12,864.44h.94v3.76h-.94v-.39a1.81,1.81,0,0,1-.56.37,1.46,1.46,0,0,1-.6.12,1.65,1.65,0,0,1-1.26-.57,1.92,1.92,0,0,1-.53-1.4,2,2,0,0,1,.51-1.43,1.64,1.64,0,0,1,1.25-.56,1.53,1.53,0,0,1,.64.13,1.65,1.65,0,0,1,.55.38Zm-1,.77a1,1,0,0,0-.72.31,1.1,1.1,0,0,0-.29.8,1.16,1.16,0,0,0,.29.8,1,1,0,0,0,.73.32,1,1,0,0,0,.74-.31,1.17,1.17,0,0,0,.29-.82,1.11,1.11,0,0,0-.29-.79A1,1,0,0,0,487.12,865.21Z" transform="translate(-328.79 -842.75)" style="fill:#1d1d1b"/><path d="M490,864.44H491v.38a2.24,2.24,0,0,1,.59-.37,1.4,1.4,0,0,1,.53-.11,1.3,1.3,0,0,1,.95.39,1.33,1.33,0,0,1,.33,1v2.49h-.94v-1.65a4.15,4.15,0,0,0-.06-.89.62.62,0,0,0-.21-.34.56.56,0,0,0-.37-.11.69.69,0,0,0-.49.19,1,1,0,0,0-.28.53,3.79,3.79,0,0,0-.05.76v1.51H490Z" transform="translate(-328.79 -842.75)" style="fill:#1d1d1b"/><path d="M494.39,863.05h.94v1.39h.56v.81h-.56v3h-.94v-3h-.49v-.81h.49Z" transform="translate(-328.79 -842.75)" style="fill:#1d1d1b"/><path d="M500.17,866.59h-3a1,1,0,0,0,.35.64,1.09,1.09,0,0,0,.73.24,1.26,1.26,0,0,0,.91-.37l.79.37a1.93,1.93,0,0,1-.71.63,2.33,2.33,0,0,1-1,.2,2,2,0,0,1-1.44-.56,1.91,1.91,0,0,1-.56-1.4,2,2,0,0,1,.56-1.43,1.85,1.85,0,0,1,1.39-.57,1.94,1.94,0,0,1,1.45.57,2.06,2.06,0,0,1,.56,1.5Zm-.94-.74a1,1,0,0,0-.37-.51,1.1,1.1,0,0,0-.64-.2,1.12,1.12,0,0,0-.7.22,1.23,1.23,0,0,0-.34.49Z" transform="translate(-328.79 -842.75)" style="fill:#1d1d1b"/><path d="M501.45,867.22a.56.56,0,0,1,.39.15.57.57,0,0,1,.16.39.55.55,0,0,1-.55.54.55.55,0,0,1-.54-.54.53.53,0,0,1,.16-.39A.52.52,0,0,1,501.45,867.22Z" transform="translate(-328.79 -842.75)" style="fill:#1d1d1b"/><path d="M506.61,865.2l-.79.43a1.36,1.36,0,0,0-.44-.32,1.29,1.29,0,0,0-.51-.09,1.16,1.16,0,0,0-.85.32,1.07,1.07,0,0,0-.33.81,1,1,0,0,0,.31.78,1.17,1.17,0,0,0,.83.31,1.21,1.21,0,0,0,1-.44l.75.51a2.3,2.3,0,0,1-3.27.2,1.9,1.9,0,0,1-.56-1.38,1.92,1.92,0,0,1,.27-1,2,2,0,0,1,.76-.73,2.38,2.38,0,0,1,1.1-.26,2.23,2.23,0,0,1,1,.22A2,2,0,0,1,506.61,865.2Z" transform="translate(-328.79 -842.75)" style="fill:#1d1d1b"/><path d="M509.23,864.34a2,2,0,0,1,1,.27,1.87,1.87,0,0,1,.73.72,1.91,1.91,0,0,1,.27,1,1.94,1.94,0,0,1-.27,1,2,2,0,0,1-.72.73,2.05,2.05,0,0,1-1,.26,1.85,1.85,0,0,1-1.38-.58,2,2,0,0,1,1.38-3.38Zm0,.89a1,1,0,0,0-.73.31,1,1,0,0,0-.29.78,1.1,1.1,0,0,0,.29.8,1,1,0,0,0,1.47,0,1.11,1.11,0,0,0,.29-.79,1.07,1.07,0,0,0-.29-.79A1,1,0,0,0,509.24,865.23Z" transform="translate(-328.79 -842.75)" style="fill:#1d1d1b"/><path d="M512,864.44h1v.43a1.65,1.65,0,0,1,.53-.4,1.57,1.57,0,0,1,.65-.13,1.16,1.16,0,0,1,1.09.68,1.6,1.6,0,0,1,.56-.51,1.55,1.55,0,0,1,.71-.17,1.28,1.28,0,0,1,.71.19,1,1,0,0,1,.44.49,2.57,2.57,0,0,1,.13,1v2.2h-1v-1.91a1.58,1.58,0,0,0-.16-.86.54.54,0,0,0-.48-.23.74.74,0,0,0-.43.14.79.79,0,0,0-.29.38,2.42,2.42,0,0,0-.09.78v1.7h-1v-1.82a2.48,2.48,0,0,0-.08-.73.65.65,0,0,0-.22-.34.61.61,0,0,0-.36-.11.74.74,0,0,0-.43.14.78.78,0,0,0-.29.39,2.61,2.61,0,0,0-.09.8v1.67h-1Z" transform="translate(-328.79 -842.75)" style="fill:#1d1d1b"/><text transform="translate(0 28.8)" style="font-size:6.09818696975708px;fill:#1d1d1b;font-family:NexaLight, Nexa Light;letter-spacing:0.23100167529073234em">C<tspan x="5.51" y="0" style="letter-spacing:0.20001462214081434em">RE</tspan><tspan x="15.65" y="0" style="letter-spacing:0.09600381583139968em">A</tspan><tspan x="20.47" y="0" xml:space="preserve" style="letter-spacing:0.20001462214081434em">TIVE  D</tspan><tspan x="49.52" y="0" style="letter-spacing:0.22107300709799377em">E</tspan><tspan x="54.61" y="0" style="letter-spacing:0.19993455223603424em">SIGNER</tspan></text><rect x="39.7" y="26.14" width="1.19" height="1.19" style="fill:#1d1d1b"/><rect x="93.74" y="2.48" width="2.53" height="28.69" style="fill:#f7931e"/></svg>